<svg xmlns="http://www.w3.org/2000/svg" viewBox="0 0 201.33 90.71"><defs><style>.cls-1{fill:#fff;}</style></defs><g id="Capa_2" data-name="Capa 2"><g id="Capa_1-2" data-name="Capa 1"><path class="cls-1" d="M86,12.12c0-2.31-1.38-4-3.78-4-4.56,0-5.25,4.92-5.25,8.46,0,3.9,1.11,9,6,9a7.91,7.91,0,0,0,4.92-1.71v2.43a12.35,12.35,0,0,1-5.49,1.23c-6.21,0-7.95-5.91-7.95-11.07s1.77-10.29,7.8-10.29c3.66,0,6.42,2.16,6.42,6Z"/><path class="cls-1" d="M90.93,27.18V6.48h2v20.7Z"/><path class="cls-1" d="M97.59,27.18V12.9h2V27.18Zm2-16.77H97.65l1.26-4h2.64Z"/><path class="cls-1" d="M112.2,27.18V19.26c0-1.62.24-4.65-2.1-4.65-2.85,0-4,4.44-4,6.69v5.88h-2V12.9h2v3.3h.06c.72-2.19,2-3.63,4.47-3.63s3.66,2.16,3.66,4.41v10.2Z"/><path class="cls-1" d="M118.26,9.18V6.48H121v2.7Zm.33,18V12.9h2V27.18Z"/><path class="cls-1" d="M132.3,17.25c0-1.65-.72-3-2.55-3-2.61,0-3.39,2.85-3.39,5,0,3.69,1.62,6.54,5.67,6.54a7.52,7.52,0,0,0,2.31-.3v1.62a9.86,9.86,0,0,1-3,.39c-4.92,0-7.35-3-7.35-7.8,0-3.9,1.44-7.14,5.82-7.14,3,0,4.89,1.59,4.89,4.68Z"/><path class="cls-1" d="M144.36,27.18V25.29h-.06c-.78,1.5-2.79,2.22-4.38,2.22-2.46,0-3.84-1.56-3.84-4,0-3.27,4.17-4.44,6.81-4.44A7.43,7.43,0,0,0,144.3,19v-.3c0-2.13.15-4.41-2.7-4.41-1.68,0-2.7.57-2.91,2.28h-2.28c.06-2.88,2.58-4,5.13-4,3.24,0,4.8,1.41,4.8,4.59v10ZM143.1,20.7c-1.83,0-4.68.75-4.68,3a2,2,0,0,0,2,2.07,3.76,3.76,0,0,0,3.33-2.22,5.89,5.89,0,0,0,.54-2.88Z"/><path class="cls-1" d="M81.54,55.21c-4.56,0-6.33-2.79-6.33-7v-14h2.34V47.77c0,3,.48,5.49,4.08,5.49,3.81,0,4.29-2.31,4.29-5.49V34.18h2.34v14C88.26,52.81,86.43,55.21,81.54,55.21Z"/><path class="cls-1" d="M100,54.88V47c0-1.62.24-4.65-2.1-4.65-2.85,0-4,4.44-4,6.69v5.88h-2V40.6h2v3.3h.06c.72-2.19,2-3.63,4.47-3.63s3.66,2.16,3.66,4.41v10.2Z"/><path class="cls-1" d="M105,36.88v-2.7h2.7v2.7Zm.33,18V40.6h2V54.88Z"/><path class="cls-1" d="M117.48,54.88h-2.07L110,40.6h2.19l4.2,11.28h.06l3.66-11.28h2.19Z"/><path class="cls-1" d="M125.73,46.39v.84c0,3.12,1.56,6.27,5.07,6.27a11.22,11.22,0,0,0,2.82-.39v1.68a10.88,10.88,0,0,1-3.27.42c-4.95,0-7-3.33-7-8,0-3.72,1.38-7,5.58-7,3.33,0,5,2.28,5,5.43v.69ZM128.88,42a3,3,0,0,0-3,2.7h5.73A2.64,2.64,0,0,0,128.88,42Z"/><path class="cls-1" d="M139.11,49v5.91h-2V40.6h2v2.76h.06a4.79,4.79,0,0,1,4.77-3.09v2.19C140.25,42.46,139.11,45.85,139.11,49Z"/><path class="cls-1" d="M150,55.21a13.23,13.23,0,0,1-3.9-.6V52.75a11.24,11.24,0,0,0,3.69.75c1.53,0,3.48-.42,3.48-2.31,0-1.41-1.53-2-2.58-2.58l-1.29-.69c-1.68-.9-3.24-1.68-3.24-3.87,0-2.82,2.43-3.78,4.89-3.78a14,14,0,0,1,3.36.48v1.89a9.82,9.82,0,0,0-3.33-.66c-1.11,0-2.88.48-2.88,1.86,0,1.2,1.74,1.74,2.58,2.25l1.2.72c1.74,1,3.33,1.74,3.33,4.08C155.34,54.1,152.88,55.21,150,55.21Z"/><path class="cls-1" d="M157.77,36.88v-2.7h2.7v2.7Zm.33,18V40.6h2V54.88Z"/><path class="cls-1" d="M172.17,54.88V52.45h-.06a3.86,3.86,0,0,1-3.72,2.76c-4.11,0-4.89-4-4.89-7.35,0-3.09,1-7.59,4.86-7.59a3.69,3.69,0,0,1,3.75,2.67h.06V34.18h2v20.7ZM168.87,42c-2.79,0-3,4.29-3,6.27s.33,5.25,3,5.25,3.36-3.72,3.36-5.7S171.57,42,168.87,42Z"/><path class="cls-1" d="M185.52,54.88V53h-.06c-.78,1.5-2.79,2.22-4.38,2.22-2.46,0-3.84-1.56-3.84-4,0-3.27,4.17-4.44,6.81-4.44a7.43,7.43,0,0,0,1.41-.09v-.3c0-2.13.15-4.41-2.7-4.41-1.68,0-2.7.57-2.91,2.28h-2.28c.06-2.88,2.58-4,5.13-4,3.24,0,4.8,1.41,4.8,4.59v10Zm-1.26-6.48c-1.83,0-4.68.75-4.68,3a2,2,0,0,0,2,2.07,3.76,3.76,0,0,0,3.33-2.22,5.89,5.89,0,0,0,.54-2.88Z"/><path class="cls-1" d="M199.29,54.88V52.45h-.06a3.86,3.86,0,0,1-3.72,2.76c-4.11,0-4.89-4-4.89-7.35,0-3.09,1-7.59,4.86-7.59a3.69,3.69,0,0,1,3.75,2.67h.06V34.18h2v20.7ZM196,42c-2.79,0-3,4.29-3,6.27s.33,5.25,3,5.25,3.36-3.72,3.36-5.7S198.69,42,196,42Z"/><path class="cls-1" d="M82.86,82.58V80.15H82.8a3.86,3.86,0,0,1-3.72,2.76c-4.11,0-4.89-4-4.89-7.35,0-3.09,1-7.59,4.86-7.59a3.69,3.69,0,0,1,3.75,2.67h.06V61.88h2v20.7Zm-3.3-12.9c-2.79,0-3,4.29-3,6.27s.33,5.25,3,5.25,3.36-3.72,3.36-5.7S82.26,69.68,79.56,69.68Z"/><path class="cls-1" d="M90.24,74.09v.84c0,3.12,1.56,6.27,5.07,6.27a11.22,11.22,0,0,0,2.82-.39v1.68a10.88,10.88,0,0,1-3.27.42c-5,0-7-3.33-7-8,0-3.72,1.38-7,5.58-7,3.33,0,5,2.28,5,5.43v.69Zm3.15-4.41a3,3,0,0,0-3,2.7h5.73A2.64,2.64,0,0,0,93.39,69.68Z"/><path class="cls-1" d="M119.7,82.58l-8.52-17.43h-.06V82.58H108.9V61.88h3l8.52,17.49h.06V61.88h2.22v20.7Z"/><path class="cls-1" d="M133.68,82.58V80.69h-.06c-.78,1.5-2.79,2.22-4.38,2.22-2.46,0-3.84-1.56-3.84-4,0-3.27,4.17-4.44,6.81-4.44a7.43,7.43,0,0,0,1.41-.09v-.3c0-2.13.15-4.41-2.7-4.41-1.68,0-2.7.57-2.91,2.28h-2.28c.06-2.88,2.58-4,5.13-4,3.24,0,4.8,1.41,4.8,4.59v10Zm-1.26-6.48c-1.83,0-4.68.75-4.68,3a2,2,0,0,0,2,2.07A3.76,3.76,0,0,0,133.08,79a5.89,5.89,0,0,0,.54-2.88Z"/><path class="cls-1" d="M144.84,82.58h-2.07l-5.4-14.28h2.19l4.2,11.28h.06l3.66-11.28h2.19Z"/><path class="cls-1" d="M159.15,82.58V80.69h-.06c-.78,1.5-2.79,2.22-4.38,2.22-2.46,0-3.84-1.56-3.84-4,0-3.27,4.17-4.44,6.81-4.44a7.43,7.43,0,0,0,1.41-.09v-.3c0-2.13.15-4.41-2.7-4.41-1.68,0-2.7.57-2.91,2.28H151.2c.06-2.88,2.58-4,5.13-4,3.24,0,4.8,1.41,4.8,4.59v10Zm-1.26-6.48c-1.83,0-4.68.75-4.68,3a2,2,0,0,0,2,2.07A3.76,3.76,0,0,0,158.55,79a5.89,5.89,0,0,0,.54-2.88Z"/><path class="cls-1" d="M166.35,76.67v5.91h-2V68.3h2v2.76h.06A4.79,4.79,0,0,1,171.18,68v2.19C167.49,70.16,166.35,73.55,166.35,76.67Z"/><path class="cls-1" d="M175.86,76.67v5.91h-2V68.3h2v2.76h.06A4.79,4.79,0,0,1,180.69,68v2.19C177,70.16,175.86,73.55,175.86,76.67Z"/><path class="cls-1" d="M190.59,82.58V80.69h-.06c-.78,1.5-2.79,2.22-4.38,2.22-2.46,0-3.84-1.56-3.84-4,0-3.27,4.17-4.44,6.81-4.44a7.43,7.43,0,0,0,1.41-.09v-.3c0-2.13.15-4.41-2.7-4.41-1.68,0-2.7.57-2.91,2.28h-2.28c.06-2.88,2.58-4,5.13-4,3.24,0,4.8,1.41,4.8,4.59v10Zm-1.26-6.48c-1.83,0-4.68.75-4.68,3a2,2,0,0,0,2,2.07A3.76,3.76,0,0,0,190,79a5.89,5.89,0,0,0,.54-2.88Z"/><path class="cls-1" d="M32.18,0C14.43,0,0,20.34,0,45.34S14.43,90.71,32.18,90.71,64.34,70.36,64.34,45.34,49.91,0,32.18,0ZM62.87,45.34c0,24.21-13.77,43.9-30.69,43.9S1.47,69.55,1.47,45.34,15.24,1.47,32.18,1.47,62.87,21.15,62.87,45.34Z"/><path class="cls-1" d="M19.06,76.9,15,78.46a.11.11,0,0,0-.06.07.1.1,0,0,0,0,.09l.28.29a.1.1,0,0,0,.1,0l2.7-1-1,2.76a.1.1,0,0,0,0,.1l.46.47a.07.07,0,0,0,.06,0h0a.11.11,0,0,0,.07-.06L19.18,77a.08.08,0,0,0,0-.1A.08.08,0,0,0,19.06,76.9Z"/><path class="cls-1" d="M43.28,78.73a.11.11,0,0,0-.11,0,.1.1,0,0,0,0,.1l1.17,4.3a.07.07,0,0,0,.06.07h0a.09.09,0,0,0,.06,0l.3-.25a.12.12,0,0,0,0-.11L44,80l2.59,1.29a.09.09,0,0,0,.11,0l.5-.42a.12.12,0,0,0,0-.09.08.08,0,0,0,0-.07Z"/><path class="cls-1" d="M3.71,46h0l4-1.76a.1.1,0,0,0,.06-.09.11.11,0,0,0,0-.09L3.83,42.16a.1.1,0,0,0-.09,0,.08.08,0,0,0-.05.08v.4a.08.08,0,0,0,.05.09L6.34,44,3.69,45.16a.1.1,0,0,0-.06.09v.67a.09.09,0,0,0,0,.08Z"/><path class="cls-1" d="M23.94,80.91a.09.09,0,0,0-.13,0l-.73,1.3a2.72,2.72,0,0,0-.35-.16l0-.19a8.59,8.59,0,0,0-.48-1.68,1.35,1.35,0,0,0-.56-.65,1.58,1.58,0,0,0-.26-.13,1.37,1.37,0,0,0-.39,0,.1.1,0,0,0-.09.07.12.12,0,0,0,0,.11,1.41,1.41,0,0,1,.21.18,2.69,2.69,0,0,1,.34.68c.11.31.29,1,.42,1.48a1.12,1.12,0,0,0-1,.57,1.08,1.08,0,0,0-.11.9,1.77,1.77,0,0,0,.85.9l.78.46h.07a.09.09,0,0,0,.06,0l1.9-3.37a.08.08,0,0,0,0-.08.07.07,0,0,0,0,0Zm-1.82,3-.07,0a.81.81,0,0,1-.37-1.08.71.71,0,0,1,.38-.33l.16,0a1.38,1.38,0,0,1,.62.2Z"/><path class="cls-1" d="M39.08,9.46l.07,0,3.34-2.88a.16.16,0,0,0,0-.09.1.1,0,0,0-.05-.08l-.36-.17a.09.09,0,0,0-.1,0l-2.2,1.9.06-3a.11.11,0,0,0,0-.09l-.59-.28a.07.07,0,0,0-.09,0,.14.14,0,0,0,0,.08L39,9.36a.11.11,0,0,0,0,.09Z"/><path class="cls-1" d="M43.38,11.85a.11.11,0,0,0,.14,0l2-2.21L45.71,14a.11.11,0,0,0,0,.07l.12.12.06,0h0a.09.09,0,0,0,.07,0l2.58-2.86a.09.09,0,0,0,0-.07.07.07,0,0,0,0-.06l-.27-.25a.09.09,0,0,0-.13,0l-1.79,2L46.26,9a.09.09,0,0,0,0-.07l-.4-.37a.09.09,0,0,0-.13,0l-2.58,2.86a.1.1,0,0,0,0,.14Z"/><path class="cls-1" d="M48,16.63a.07.07,0,0,0,0,.07l.36.48a.09.09,0,0,0,.07,0l.06,0,3-2.37a.11.11,0,0,0,0-.14l-.37-.48s0,0-.06,0l-.07,0-3,2.37A.09.09,0,0,0,48,16.63Z"/><path class="cls-1" d="M50.61,21.12a.09.09,0,0,0,.08.05h0l4.35-.33a.1.1,0,0,0,.08-.05.14.14,0,0,0,0-.09l-.19-.36a.08.08,0,0,0-.09-.05L52,20.51l1.74-2.36a.08.08,0,0,0,0-.1l-.3-.58a.1.1,0,0,0-.08,0,.08.08,0,0,0-.08,0L50.62,21A.09.09,0,0,0,50.61,21.12Z"/><path class="cls-1" d="M54.65,25.15,55,26a.09.09,0,0,0,.12.06l.31-.12a.11.11,0,0,0,0-.13L55.14,25l1.13-.46.48,1.24a.1.1,0,0,0,0,.06h.07l.31-.13a.1.1,0,0,0,.06-.12l-.74-1.9s0,0,0,0a.09.09,0,0,0-.07,0L52.84,25a.1.1,0,0,0-.06.13l.73,1.9a.1.1,0,0,0,.06.05h.07l.3-.12a.1.1,0,0,0,.05-.13l-.47-1.24Z"/><path class="cls-1" d="M57.67,36.13l.09,0-.09,0c-.16.42-.29.78-.61.83h-.15a.46.46,0,0,1-.39-.36.13.13,0,0,1,0-.06s0-.11,0-.17a1.45,1.45,0,0,1,.39-.84l.15-.15a.09.09,0,0,0,0-.11.07.07,0,0,0-.09-.05l-.7.11a.1.1,0,0,0-.07,0v0A1.56,1.56,0,0,0,56,36.45a1.33,1.33,0,0,0,1.17,1.24h.17c.73-.12,1-.78,1.14-1.31s.26-.77.57-.81a.33.33,0,0,1,.14,0,.42.42,0,0,1,.34.31s0,.05,0,.08a.57.57,0,0,1,0,.13,1.33,1.33,0,0,1-.33.75l-.12.14a.09.09,0,0,0,0,.11.08.08,0,0,0,.09.05l.68-.11s0,0,.07-.05v0A1.68,1.68,0,0,0,60,36a1.41,1.41,0,0,0-.38-.77,1,1,0,0,0-.88-.3C58.1,35,57.86,35.63,57.67,36.13Z"/><path class="cls-1" d="M56.47,40.64l.05.61a.09.09,0,0,0,0,.07l.06,0h0l3.8-.3a.08.08,0,0,0,.08-.1l0-.61a.08.08,0,0,0,0-.06.07.07,0,0,0-.06,0l-3.8.3A.1.1,0,0,0,56.47,40.64Z"/><path class="cls-1" d="M60.63,43.9a.11.11,0,0,0-.07,0h-.33a.11.11,0,0,0-.1.1v1.33l-3.38,0s-.05,0-.07,0a.11.11,0,0,0,0,.07V46a.11.11,0,0,0,.1.1l3.38,0v1.33a.11.11,0,0,0,0,.07l.06,0h.33a.09.09,0,0,0,.1-.1l0-3.45A.14.14,0,0,0,60.63,43.9Z"/><path class="cls-1" d="M58.65,56c-.66-.13-1.09.37-1.43.77s-.55.64-.86.57l-.14-.05a.46.46,0,0,1-.25-.48.13.13,0,0,0,0-.06,1,1,0,0,1,.05-.16,1.37,1.37,0,0,1,.65-.65l.18-.09a.11.11,0,0,0,.06-.1.11.11,0,0,0-.08-.09l-.69-.14h-.07l0,0a1.58,1.58,0,0,0-.56.92,1.29,1.29,0,0,0,.84,1.62c.73.15,1.16-.38,1.51-.82s.53-.62.81-.57l.14,0a.46.46,0,0,1,.21.42s0,0,0,.08a.65.65,0,0,1,0,.13,1.31,1.31,0,0,1-.57.58l-.16.09a.12.12,0,0,0,0,.1.11.11,0,0,0,.08.08l.67.14h0a.09.09,0,0,0,.07,0l0,0a1.68,1.68,0,0,0,.44-.87,1.46,1.46,0,0,0-.09-.85A1,1,0,0,0,58.65,56Z"/><path class="cls-1" d="M53.35,71.2a1.54,1.54,0,0,0-1.61.24c-.37.21-.72.4-1,.24a.52.52,0,0,1-.11-.1.47.47,0,0,1-.08-.54l0,0,.1-.15a1.44,1.44,0,0,1,.82-.39l.21,0a.08.08,0,0,0,.08-.07.11.11,0,0,0,0-.11l-.61-.37a.09.09,0,0,0-.07,0h0a1.53,1.53,0,0,0-.83.67,1.61,1.61,0,0,0-.24,1,1.07,1.07,0,0,0,.49.84,1.54,1.54,0,0,0,1.7-.26c.39-.23.69-.42.95-.26a.38.38,0,0,1,.14.14.41.41,0,0,1,0,.4l0,.09a.44.44,0,0,1-.08.11,1.29,1.29,0,0,1-.73.35l-.18,0a.11.11,0,0,0-.08.08.1.1,0,0,0,.05.1l.58.36h.12a1.56,1.56,0,0,0,.71-.66,1.53,1.53,0,0,0,.19-.82A1,1,0,0,0,53.35,71.2Z"/><path class="cls-1" d="M51.09,75.86a.1.1,0,0,0-.07,0,.09.09,0,0,0-.07,0l-.82,1-2.62-2.19a.09.09,0,0,0-.13,0l-.38.47a.19.19,0,0,0,0,.07.15.15,0,0,0,0,.07l2.62,2.19-.82,1a.07.07,0,0,0,0,.07.09.09,0,0,0,0,.07l.26.21a.07.07,0,0,0,.06,0,.13.13,0,0,0,.07,0l2.15-2.67a.11.11,0,0,0,0-.14Z"/><path class="cls-1" d="M39.86,81.38a.09.09,0,0,0-.12,0l-.78.33A3.61,3.61,0,0,0,37.28,83a1.92,1.92,0,0,0-.11,1.84,1.6,1.6,0,0,0,1.66,1.1,4.93,4.93,0,0,0,1.64-.44l.82-.36a.08.08,0,0,0,.05,0,.09.09,0,0,0,0-.07ZM40.24,85c-1.23.5-2,.26-2.46-.77a1.32,1.32,0,0,1-.08-.91.84.84,0,0,1,.21-.35,3.56,3.56,0,0,1,1.23-.78l.16-.07,1.15,2.79Z"/><path class="cls-1" d="M34.18,83.09l-.07,0-.59.06a.1.1,0,0,0-.09.1l.35,3.88a.21.21,0,0,0,0,.06.07.07,0,0,0,.06,0h0l.59,0a.12.12,0,0,0,.09-.11l-.35-3.87A.16.16,0,0,0,34.18,83.09Z"/><path class="cls-1" d="M28.82,82.73a2.13,2.13,0,0,0-2.58,1.63A2,2,0,0,0,26.56,86a2.35,2.35,0,0,0,1.48.88,2.32,2.32,0,0,0,.46,0,2.09,2.09,0,0,0,2.12-1.68,2,2,0,0,0-.32-1.59A2.29,2.29,0,0,0,28.82,82.73Zm1,2.33a1.82,1.82,0,0,1-.39.89,1,1,0,0,1-.67.38,1.3,1.3,0,0,1-.44,0A1.64,1.64,0,0,1,27,84.5a1.91,1.91,0,0,1,.39-.9,1,1,0,0,1,.67-.38h.18a1.18,1.18,0,0,1,.26,0,1.64,1.64,0,0,1,1.3,1.83Z"/><path class="cls-1" d="M16.06,73.72l-.19-.31s0,0-.06,0a.08.08,0,0,0-.07,0l-2.23,1.44L15,72a.1.1,0,0,0,0-.09l-.06-.11a.13.13,0,0,0-.09,0l-2.92.06,2.07-1.34a.07.07,0,0,0,0-.06.06.06,0,0,0,0-.07l-.32-.52a.11.11,0,0,0-.13,0L10.31,71.9a.09.09,0,0,0,0,.13l.2.32a.07.07,0,0,0,.08.05l3.35-.06-1.52,3a.09.09,0,0,0,0,.1l.29.47a.09.09,0,0,0,.08,0h.06L16,73.85A.09.09,0,0,0,16.06,73.72Z"/><path class="cls-1" d="M8.84,57.25l-2.9.55,2.4-3.59,0,0a.15.15,0,0,0,0-.07l0-.17a.09.09,0,0,0-.11-.08l-3.75.7-.06,0a.09.09,0,0,0,0,.07l.06.37a.09.09,0,0,0,.11.07l2.59-.48L5,57.81a.19.19,0,0,0,0,.07l.1.55s0,0,0,.06l.06,0h0l3.75-.71A.09.09,0,0,0,9,57.69L9,57.33A.1.1,0,0,0,8.84,57.25Z"/><path class="cls-1" d="M9.24,30.68a.08.08,0,0,0-.09.06A1.22,1.22,0,0,1,9,31a2.68,2.68,0,0,1-.53.54c-.26.2-.82.57-1.27.85a1.13,1.13,0,0,0-.82-.79,1,1,0,0,0-.88.17A1.77,1.77,0,0,0,5,32.87l-.2.89a.11.11,0,0,0,.08.12l3.71.84h.07a.13.13,0,0,0,.05-.06l.12-.6a.09.09,0,0,0-.07-.11l-1.44-.33a2.71,2.71,0,0,0,.06-.38l.16-.1a7.78,7.78,0,0,0,1.43-1,1.38,1.38,0,0,0,.43-.74,1.36,1.36,0,0,0,0-.3,1.69,1.69,0,0,0-.07-.39S9.27,30.67,9.24,30.68ZM6.82,33.51l-1.4-.32,0-.08c0-.2.26-.83.89-.69a.65.65,0,0,1,.42.27A1.17,1.17,0,0,1,6.82,33.51Z"/><path class="cls-1" d="M55.65,33.43a.09.09,0,0,0,.06,0h0a.11.11,0,0,0,0-.11,1.28,1.28,0,0,1,0-.28,2.54,2.54,0,0,1,.22-.72c.16-.36.56-1.07.73-1.36a1.09,1.09,0,0,0,1.08.3,1.07,1.07,0,0,0,.71-.57,1.87,1.87,0,0,0,0-1.25l-.24-.88a.1.1,0,0,0,0-.06.09.09,0,0,0-.07,0l-3.67,1a.13.13,0,0,0-.06.05.15.15,0,0,0,0,.07l.16.59a.12.12,0,0,0,0,0,.06.06,0,0,0,.07,0l1.42-.4a3,3,0,0,0,.13.36l-.1.16A8.84,8.84,0,0,0,55.34,32a1.39,1.39,0,0,0,0,.86,1.33,1.33,0,0,0,.1.28A1,1,0,0,0,55.65,33.43Zm2.32-4,0,.08c0,.2.15.86-.47,1a.65.65,0,0,1-.5,0,1.2,1.2,0,0,1-.44-.69Z"/><path class="cls-1" d="M11.88,24.1H12a.06.06,0,0,0,.06-.05l.86-1.83a.22.22,0,0,0,0-.08l-.05-.05-.3-.15a.09.09,0,0,0-.12,0l-.57,1.2-1.1-.54.41-.86a.1.1,0,0,0-.05-.13l-.3-.15a.09.09,0,0,0-.12,0l-.41.86-1.1-.54.57-1.2a.1.1,0,0,0-.05-.13l-.3-.15H9.32a.08.08,0,0,0-.05.05L8.4,22.29a.1.1,0,0,0,0,.13Z"/><path class="cls-1" d="M14,20h.07a.08.08,0,0,0,.06,0l.2-.31a.1.1,0,0,0,0-.13l-2.45-1.66,4.19-.89a.13.13,0,0,0,.06-.05l.09-.14a.1.1,0,0,0,0-.14L13,14.46a.09.09,0,0,0-.07,0,.09.09,0,0,0-.06,0l-.2.31a.09.09,0,0,0,0,.13l2.19,1.48-3.72.76a.09.09,0,0,0-.06,0l-.31.47a.15.15,0,0,0,0,.07s0,.05,0,.06Z"/><path class="cls-1" d="M17.34,12.88l0-.09,0,.09c.42-.11.79-.21,1,0a.56.56,0,0,1,.11.17.41.41,0,0,1,0,.45l-.07.08-.13.12a1.46,1.46,0,0,1-.9.16l-.2,0a.09.09,0,0,0-.1.05A.11.11,0,0,0,17,14l.5.52a.09.09,0,0,0,.07,0h0a1.49,1.49,0,0,0,1-.44,1.6,1.6,0,0,0,.48-.89,1.06,1.06,0,0,0-.27-.93,1.53,1.53,0,0,0-1.71-.19c-.43.13-.77.23-1,0A.28.28,0,0,1,16,12a.43.43,0,0,1,.05-.47l.05-.06.1-.08a1.26,1.26,0,0,1,.79-.16l.19,0a.11.11,0,0,0,.09-.06.09.09,0,0,0,0-.11l-.48-.49a.07.07,0,0,0-.08,0h0a1.55,1.55,0,0,0-.84.45,1.5,1.5,0,0,0-.39.76,1,1,0,0,0,.27.91A1.51,1.51,0,0,0,17.34,12.88Z"/><path class="cls-1" d="M21.22,11.46a.09.09,0,0,0,.08,0h.05l.49-.36s0,0,0-.06a.14.14,0,0,0,0-.07L19.64,7.84a.09.09,0,0,0-.13,0L19,8.17s0,0,0,.06a.14.14,0,0,0,0,.07Z"/><path class="cls-1" d="M24.08,7.76v0c.44,0,.82.09,1,.39a.61.61,0,0,1,0,.17.45.45,0,0,1-.25.46l0,0a.52.52,0,0,1-.16.06,1.37,1.37,0,0,1-.9-.17l-.18-.1a.11.11,0,0,0-.11,0,.09.09,0,0,0,0,.11l.28.67a.1.1,0,0,0,.06,0h0a1.33,1.33,0,0,0,.43.07,1.61,1.61,0,0,0,.63-.13,1.3,1.3,0,0,0,.82-1.64c-.3-.69-1-.75-1.53-.79s-.8-.06-.92-.35a.57.57,0,0,1,0-.14A.45.45,0,0,1,23.37,6l.07,0,.13,0a1.2,1.2,0,0,1,.79.14l.17.08a.08.08,0,0,0,.1,0,.09.09,0,0,0,0-.11l-.27-.64a.08.08,0,0,0-.07,0h0a1.55,1.55,0,0,0-.94.12,1.46,1.46,0,0,0-.62.56,1,1,0,0,0-.07,1C22.91,7.63,23.56,7.7,24.08,7.76Z"/><path class="cls-1" d="M10.14,28.55l-1.39-.48a2.83,2.83,0,0,0,.09-.37L9,27.62a8.24,8.24,0,0,0,1.52-.8,1.4,1.4,0,0,0,.52-.7,1.28,1.28,0,0,0,.07-.28,1.54,1.54,0,0,0,0-.4.1.1,0,0,0-.09-.07.09.09,0,0,0-.09.06s-.07.15-.14.24a2.46,2.46,0,0,1-.59.48c-.27.17-.87.47-1.34.7A1.15,1.15,0,0,0,8.11,26a1,1,0,0,0-.9.06,1.84,1.84,0,0,0-.7,1l-.28.87a.09.09,0,0,0,.06.12l3.6,1.25H10a.1.1,0,0,0,0-.06l.19-.57A.1.1,0,0,0,10.14,28.55ZM8.3,27.91l-1.36-.47,0-.07c.07-.2.34-.8,1-.59a.64.64,0,0,1,.39.32A1.19,1.19,0,0,1,8.3,27.91Z"/><path class="cls-1" d="M28.25,20.15a.39.39,0,0,0-.12.32.46.46,0,0,0,.44.45.45.45,0,0,0,.33-.15.44.44,0,0,0,.13-.32.5.5,0,0,0-.14-.33A.45.45,0,0,0,28.25,20.15Z"/><path class="cls-1" d="M31.3,34.68h0c-.16-.63-.31-1.19-.47-1.7a15.35,15.35,0,0,0-.62-1.68.12.12,0,0,0-.22.06,15.71,15.71,0,0,0,.22,1.77c.09.53.21,1.1.36,1.73s.31,1.19.47,1.71a16.08,16.08,0,0,0,.61,1.67.14.14,0,0,0,.11.07h0a.11.11,0,0,0,.09-.12,15.44,15.44,0,0,0-.22-1.77C31.57,35.87,31.45,35.3,31.3,34.68Z"/><path class="cls-1" d="M34.38,40.64a.11.11,0,0,0-.11.11c-.12.92-.19,1.85-.26,2.75,0,.23,0,.46,0,.7v.11c-.09,1.08-.18,2.19-.35,3.26a9.43,9.43,0,0,1-.92,3.1,3.44,3.44,0,0,1-.45.62,2.54,2.54,0,0,1-.58.45,3,3,0,0,1-1.53.31.13.13,0,0,0-.12.1.12.12,0,0,0,.08.14,3.12,3.12,0,0,0,1,.16,2.75,2.75,0,0,0,.85-.14,3.15,3.15,0,0,0,1.49-1.16,6.19,6.19,0,0,0,.8-1.67,11.61,11.61,0,0,0,.41-1.75,20.25,20.25,0,0,0,.2-3.51,26.48,26.48,0,0,0-.29-3.48A.12.12,0,0,0,34.38,40.64Z"/><path class="cls-1" d="M34.41,38.54h0a.12.12,0,0,0,.11-.1c.14-.87.24-1.73.34-2.57l0-.43c.1-.89.2-1.81.29-2.71.11-1.09.19-2,.26-2.85v0c.07-.94.15-1.9.15-2.87a.12.12,0,0,0-.1-.12.11.11,0,0,0-.13.08,22.82,22.82,0,0,0-.75,2.81c-.19.94-.33,1.9-.43,2.86s-.15,2-.15,2.91a18.46,18.46,0,0,0,.24,2.91A.13.13,0,0,0,34.41,38.54Z"/><path class="cls-1" d="M31.42,38.86a.11.11,0,0,0-.15,0,.14.14,0,0,0,0,.16,3.19,3.19,0,0,0,1.15.75,5.27,5.27,0,0,0,1.33.31,7.09,7.09,0,0,0,.81,0A9.45,9.45,0,0,0,36.42,40,11.31,11.31,0,0,0,39,39.15h0a7.55,7.55,0,0,0,2.22-1.45.12.12,0,0,0,0-.15.13.13,0,0,0-.15,0,17.78,17.78,0,0,1-2.37.92,20.49,20.49,0,0,1-2.42.62,12.34,12.34,0,0,1-2.45.28A5,5,0,0,1,31.42,38.86Z"/><path class="cls-1" d="M17.7,48.93h0a1.08,1.08,0,0,0-.5.17.13.13,0,0,0-.06.14,1.18,1.18,0,0,0,.27.47.92.92,0,0,0,.35.24.94.94,0,0,0,.37.07h.06a1.05,1.05,0,0,0,.51-.16.11.11,0,0,0,.05-.14,1.3,1.3,0,0,0-.26-.48,1,1,0,0,0-.79-.31Z"/><path class="cls-1" d="M43.15,68.89A16.1,16.1,0,0,0,43.61,67c.06-.29.11-.61.16-.93v-.06c0-.29.08-.57.13-.84a7.14,7.14,0,0,1,1.36-3.15,5.88,5.88,0,0,1,1.28-1.16,8,8,0,0,1,1.3-.7l.11.44c.09.34.18.68.28,1a.48.48,0,0,0,.92.06c.2-.52.4-1.06.6-1.65a2.7,2.7,0,0,1,.26.45,2.43,2.43,0,0,1,.2,1.07,2.55,2.55,0,0,1-.27,1,2.85,2.85,0,0,1-.6.86,5.8,5.8,0,0,1-.71.55l-.2.14a7,7,0,0,0-1,.82l-.12.13-.12.13-.2.28a6.65,6.65,0,0,0-.33.58,9.73,9.73,0,0,0-.49,1.2.5.5,0,0,0,.28.62l.58.27-.21.19-.8.72c-.32.28-.63.58-.94.87V69.9c0-.31,0-.64,0-1,0-.71,0-1.37-.05-2a.14.14,0,0,0-.11-.12.13.13,0,0,0-.13.11c-.09.62-.18,1.27-.26,2,0,.36-.08.68-.11,1l-.1,1a.4.4,0,0,0,.08.28.38.38,0,0,0,.53.06h0l.57-.46,1.1-.89.83-.69.55-.46.27-.23a.46.46,0,0,0,.13-.18.5.5,0,0,0,0-.38.53.53,0,0,0-.27-.28l-.86-.4a5.35,5.35,0,0,1,.27-.64,5.42,5.42,0,0,1,.26-.48c0-.07.09-.14.14-.21l.17-.2a6.28,6.28,0,0,1,.83-.75l.15-.12.33-.26a4.32,4.32,0,0,0,.48-.46,3.36,3.36,0,0,0,.69-1.17,3,3,0,0,0,.2-1.34,2.77,2.77,0,0,0-.42-1.27,2.38,2.38,0,0,0-.53-.6c.19-.6.38-1.23.59-2,.06-.21.12-.42.17-.64v0a1.08,1.08,0,0,0,.49-.32,1.28,1.28,0,0,0,.35-.91,1.34,1.34,0,0,0-.34-.85c.11-.5.2-.93.27-1.33a56.72,56.72,0,0,0,1-8.33c0-.6.05-1.25.05-2a1.28,1.28,0,0,0,0-2.31c0-1.25-.13-2.57-.29-4.06-.12-1.06-.28-2.16-.49-3.29a1.28,1.28,0,0,0-.48-2.39c-.2-.87-.42-1.72-.65-2.53,0,0,0,0,0-.05a.33.33,0,0,0-.18-.17.36.36,0,0,0-.25,0,22.17,22.17,0,0,1-2.27.91c-.62.21-1.29.42-2,.63-.34-1.73-.78-3.54-1.36-5.53-.26-.92-.56-1.85-.86-2.74v0c-.34-1-.68-1.9-1-2.72A10.19,10.19,0,0,0,41,16.45a5,5,0,0,0-.57-.56,1.77,1.77,0,0,0-.86-.4,1.14,1.14,0,0,0-.55.06,1.22,1.22,0,0,0-.44.28,2.75,2.75,0,0,0-.29.33c-.07.1-.15.21-.21.31a10,10,0,0,0-1.27,2.68,10.26,10.26,0,0,0-.48,2.9.12.12,0,0,0,.24,0,12.67,12.67,0,0,1,.81-2.7A11.19,11.19,0,0,1,38,18.12h0A10.43,10.43,0,0,1,38.73,17l.21-.27a.84.84,0,0,1,.19-.19.38.38,0,0,1,.3-.11.87.87,0,0,1,.39.23,3.26,3.26,0,0,1,.43.46A7.93,7.93,0,0,1,41,18.2a13,13,0,0,1,.61,1.25c.4.91.75,1.84,1,2.63.23.6.45,1.22.66,1.82.11.29.21.58.31.87l.37,1c.5,1.42,1,2.88,1.55,4.32l-.08,0c-.66.18-1.38.36-2.18.55l-.77-1.25c-.19-.31-.39-.61-.59-.92l-.25-.39c-.19-.31-.4-.62-.6-.92l-.67-1L40,25.62l0-.06h0a5.45,5.45,0,0,0-2.15-1.8,6,6,0,0,0-1.33-.46,2.62,2.62,0,0,1-1-.45,2.32,2.32,0,0,1-.7-.82,3.28,3.28,0,0,1-.2-.52l0-.11-.12-.51c-.23-.92-.44-1.75-.69-2.6-.06-.18-.14-.42-.24-.66a4,4,0,0,0-.32-.66,3.1,3.1,0,0,0-1.05-1.1,2.88,2.88,0,0,0-1.45-.4,4.94,4.94,0,0,0-1.4.21l-.22.07-.43.16a5.27,5.27,0,0,0-.63.31,4.41,4.41,0,0,0-1,.93,4.29,4.29,0,0,0-.4.58,3.28,3.28,0,0,0-.27.66,2.72,2.72,0,0,0-.05,1.39,3.06,3.06,0,0,0,.07.56c.06.19.11.37.17.54a.62.62,0,0,0,.12.19.3.3,0,0,0,.08.08l.59.43h0c0,.25.09.5.13.75s.05.25.08.38l.05.27a.39.39,0,0,0,.45.29l.56-.1a4.06,4.06,0,0,0,.79.71,2.24,2.24,0,0,0,1.23.42h.1a.3.3,0,0,0,.23-.11,3.23,3.23,0,0,0,.61-1A4.44,4.44,0,0,0,31.7,22a.12.12,0,0,0-.23-.05,4.37,4.37,0,0,1-.94,1.63,1.77,1.77,0,0,1-.79-.37,3.23,3.23,0,0,1-.72-.71l0-.05a.39.39,0,0,0-.39-.14l-.42.09a2.68,2.68,0,0,1-.07-.27c-.06-.24-.13-.49-.2-.73l0-.16a.28.28,0,0,0-.14-.18l-.47-.25-.3-.16h0l0,0-.25-.46a2.52,2.52,0,0,1-.15-.34l1.08-.25.6-.16h0l.22-.05.25,0a1.81,1.81,0,0,1,1,.24,2.37,2.37,0,0,1,.44.31v0a.42.42,0,0,0,.28.1l.17,0,.55-.29.15-.09.33.86a.31.31,0,0,0,.13.17l.32.22c.59.4,1.09.72,1.58,1a4.06,4.06,0,0,0,.27.65,3.27,3.27,0,0,0,1,1.15,1.88,1.88,0,0,0,.23.16s0,0,0,0v0a4.85,4.85,0,0,1-.58,1.46,1.66,1.66,0,0,1-1.21.67.78.78,0,0,1-.22,0h-.52a1.48,1.48,0,0,1-.63-.17,1.54,1.54,0,0,1-.73-1,.44.44,0,0,0-.7-.29h0c-.54.3-1,.57-1.44.88a9.91,9.91,0,0,0-1.42,1.12,2.72,2.72,0,0,0-.62.82,1,1,0,0,0-.08.19s0,0,0,.06l0,.07a1.42,1.42,0,0,0,0,.16c0,.05,0,.1,0,.15s0,.19-.07.29a16.72,16.72,0,0,0-.3,1.76c-.08.68-.13,1.24-.15,1.74v.12a19.92,19.92,0,0,1-2-3.21,27.26,27.26,0,0,1-1.62-4.06l-.06-.2a3,3,0,0,1-.1-.32l-.15-.53c0-.1-.05-.2-.08-.3s-.14-.51-.19-.76l-.25-1.07,0-.12c-.06-.33-.11-.65-.18-1l-.1-.53a.67.67,0,0,1,0-.34.43.43,0,0,1,.34-.3h.24a4.67,4.67,0,0,1,1,.06c.3,0,.6.12.91.19a7,7,0,0,0,.39,1.89,5.18,5.18,0,0,0,1.64,2.37.1.1,0,0,0,.15,0,.1.1,0,0,0,0-.16,5.55,5.55,0,0,1-1.21-2.38A6.49,6.49,0,0,1,25,18.54l.06-.32a1.46,1.46,0,0,0,.05-.2.56.56,0,0,0,0-.12,2.54,2.54,0,0,1,.15-.44l.06-.17a1.42,1.42,0,0,1,.08-.18l.06-.1a1.17,1.17,0,0,1,.05-.11l.09-.17.09-.13a2.9,2.9,0,0,1,.27-.41,5.55,5.55,0,0,1,.87-.91l.18-.14a2.54,2.54,0,0,1,.34-.23l.26-.16.29-.14a5.08,5.08,0,0,1,4.84.26c.08,0,.15.1.23.15l0,0,.1.07.16.12.3.26.07.06.34.35.31.38.27.41a6.19,6.19,0,0,1,.83,2.56.12.12,0,0,0,.11.11.11.11,0,0,0,.12-.11,5.72,5.72,0,0,0-.52-2.86,5.84,5.84,0,0,0-1.91-2.24,5.68,5.68,0,0,0-5.7-.47,6.06,6.06,0,0,0-3.38,5.47,8.23,8.23,0,0,0-.78-.33,5.37,5.37,0,0,0-1.13-.24h-.32a1.12,1.12,0,0,0-.38.09,1.22,1.22,0,0,0-.56.54,1.36,1.36,0,0,0-.17.75c0,.13,0,.25,0,.37a1.5,1.5,0,0,1,0,.2l0,.1c0,.34.07.69.12,1l.21,1.11c0,.27.11.53.17.78a3.38,3.38,0,0,1,.08.34l.15.55c0,.12.07.24.11.36l.06.18a18.66,18.66,0,0,0,1.85,4.16,12.78,12.78,0,0,0,2.67,3.26c0,.33,0,.75,0,1.17,0,.88,0,1.76,0,2.63l-.25-.4c-.51-.8-1.07-1.56-1.5-2.14s-1-1.32-1.63-2a.46.46,0,0,0-.44-.15c-.06-.15-.13-.3-.19-.46l-.12-.26-.21-.49L21.8,30l-.23-.48c-.11-.23-.23-.46-.35-.69v0a.43.43,0,0,0-.37-.23h0c-.46,0-1,0-1.53.05-.33-1.12-.68-2.23-1-3.3-.3-.91-.72-2.11-1.21-3.3a.13.13,0,0,0-.14-.07.11.11,0,0,0-.08.14c.23,1.27.52,2.5.76,3.44s.54,2.07.85,3.13a.52.52,0,0,0-.42.44c-.07.5-.13.94-.17,1.34v0a.46.46,0,0,0,.06.28c.15.29.32.6.5.92s.35.61.54.91l0,0a.32.32,0,0,0,.21.15l.41.09c1.35,4.55,2.79,9.33,3.85,12.79,1.13,3.65,2,6.46,2.87,9.12a.19.19,0,0,0,.18.14h.06a.2.2,0,0,0,.14-.2l0-2.23a.14.14,0,0,0-.05-.1.18.18,0,0,0-.1,0h0l-.39.16c-.58-2.12-1.21-4.37-2-7.06-1-3.5-3.24-11.1-3.66-12.43h.1l.28,0c.38,1.54.77,3.13,1.29,4.67.24.7.52,1.52.86,2.31a11.26,11.26,0,0,0,1.17,2.21l.09.13a6.32,6.32,0,0,0,.74.9,3.72,3.72,0,0,0,.55.41,1.76,1.76,0,0,0,.69.27,1.48,1.48,0,0,0,.42,0l.34-.08a3.73,3.73,0,0,0,.62-.28,4.57,4.57,0,0,0,1-.82,8.31,8.31,0,0,0,1.36-2.11,5.12,5.12,0,0,0,.35-1.21,8.27,8.27,0,0,0,.15-1.23.11.11,0,0,0-.1-.12.11.11,0,0,0-.13.1A11.2,11.2,0,0,1,30,39.35a5.29,5.29,0,0,1-.4,1.1,7.65,7.65,0,0,1-1.43,1.84,4,4,0,0,1-.89.64,2.67,2.67,0,0,1-.49.18,1.2,1.2,0,0,1-.24,0,.42.42,0,0,1-.19,0,1.76,1.76,0,0,1-.8-.52,5,5,0,0,1-.57-.76l-.1-.17a10.38,10.38,0,0,1-1-2.06c-.31-.8-.57-1.54-.8-2.26-.47-1.48-.88-3-1.22-4.37l.32-.22.33-.23c.41.47.84,1,1.39,1.63s1.07,1.34,1.58,2c.28.38.52.72.73,1a9.62,9.62,0,0,1,.62,1.09A1.39,1.39,0,0,1,27,39.41a1.13,1.13,0,0,1-.35.43,3.23,3.23,0,0,1-.52.31.11.11,0,0,0-.06.15.11.11,0,0,0,.14.07,2.84,2.84,0,0,0,.62-.27,1.34,1.34,0,0,0,.52-.51,1.24,1.24,0,0,0,.12-.77,3.3,3.3,0,0,0-.18-.68,9.76,9.76,0,0,0-.67-1.41l.33-3.12.05-.46c.05-.41.1-.83.16-1.25s.15-1.1.24-1.7.21-1.14.33-1.65c0-.09,0-.17.07-.25a1,1,0,0,0,0-.14s0-.08,0-.12a.19.19,0,0,0,0-.07.08.08,0,0,0,0-.06.49.49,0,0,1,0-.07l0,0a1,1,0,0,1,.14-.22l.08-.09a1.8,1.8,0,0,1,.19-.2,11.34,11.34,0,0,1,1.27-1l.94-.64a3,3,0,0,0,.23.35,2.22,2.22,0,0,0,1.78.83l.33,0H33l.14,0a1.57,1.57,0,0,0,.3-.05,2.36,2.36,0,0,0,.87-.38,2.2,2.2,0,0,0,.63-.72,4.54,4.54,0,0,0,.39-1.68,3.63,3.63,0,0,0,.93.31,5.8,5.8,0,0,1,1.14.36A4.9,4.9,0,0,1,39.32,26v0l0,0,0,0,.88,1.13.36.47.58.75c.11.14.22.27.32.41s.42.54.64.8.56.7.85,1.06l-.73.15-.43.1-1.21.23h0l0,0h0l0,0a.17.17,0,0,0,0,.05v.05h0l1.87,7.49,1.89,7.57c.21.8.41,1.61.62,2.41.43,1.71.87,3.47,1.33,5.2l.2.78,1,3.94a7.34,7.34,0,0,0-3.24,1.17,6.68,6.68,0,0,0-2.37,2.94l-.16.43a1.86,1.86,0,0,0-.1.31.83.83,0,0,0,0,.15l-.05.15a2.81,2.81,0,0,1-.08.31l-.09.43c-.14.6-.27,1.18-.41,1.73A12.9,12.9,0,0,1,40.41,68a6.68,6.68,0,0,1-.37.77c-.09.17-.2.33-.29.48-.27-.22-.54-.42-.78-.59.09-.48.18-1,.26-1.44.11-.68.19-1.24.26-1.77A31,31,0,0,0,39.75,62a13.56,13.56,0,0,0,.49-2,16.1,16.1,0,0,0,.21-2.08,20.71,20.71,0,0,0,0-2.09,14,14,0,0,0-.18-1.6l.06,0a2.33,2.33,0,0,0,.28-.26,3.31,3.31,0,0,0,.76-1.28,7.19,7.19,0,0,0,.26-2.75c0-.32-.06-.64-.09-.94,0-.13,0-.25,0-.38a11.92,11.92,0,0,0-.24-1.27v0c-.21-.92-.46-1.81-.67-2.55-.44-1.57-.94-3.21-1.53-5a.11.11,0,0,0-.14-.08.13.13,0,0,0-.09.15c.38,1.5.81,3.28,1.23,5.08.18.81.38,1.67.55,2.54a12.53,12.53,0,0,1,.18,1.25c0,.12,0,.25,0,.38,0,.31,0,.61.05.91a6.18,6.18,0,0,1-.3,2.41,2.54,2.54,0,0,1-.58.93l-.2.17-.09.07-.15.11a4.33,4.33,0,0,1-.51.31,11.41,11.41,0,0,1-2.28.93,14.75,14.75,0,0,1-2.42.54,8.28,8.28,0,0,1-2.4,0,5.14,5.14,0,0,1-2.16-.88,5,5,0,0,1-.85-.8,4.43,4.43,0,0,1-.34-.46c-.09-.16-.18-.34-.26-.52a5.56,5.56,0,0,1-.38-2.36,5,5,0,0,1,.22-1.17,3.71,3.71,0,0,1,.22-.55,1.74,1.74,0,0,1,.1-.19c.06-.14.13-.27.19-.4.38-.81.73-1.63,1.06-2.39.79-1.87,1.41-3.42,1.95-4.85a.12.12,0,0,0-.06-.16.11.11,0,0,0-.15.06l-2.3,4.68c-.37.74-.77,1.54-1.18,2.31-.06.13-.13.25-.2.37l-.1.2a4.27,4.27,0,0,0-.29.65A5.56,5.56,0,0,0,27,50.27,6.35,6.35,0,0,0,27.42,53a6.67,6.67,0,0,0,.31.66,4.25,4.25,0,0,0,.41.59c.13.17.28.33.42.48a11,11,0,0,0-.23,1.32,12.76,12.76,0,0,0-.1,1.8,11.86,11.86,0,0,0,.14,1.8,12.5,12.5,0,0,0,.36,1.71c-.05.63-.05,1.24,0,1.76s0,1.14.07,1.81.09,1.26.14,1.79.09.86.16,1.43c-.39.18-.73.34-1,.5-.45-.7-.92-1.44-1.34-2.2A26.63,26.63,0,0,1,25.46,64l-.05-.13A11.69,11.69,0,0,0,26.3,63a3.08,3.08,0,0,0,.54-.77c.07-.16.12-.31.17-.46l0-.14c0-.1.05-.2.06-.3a6.56,6.56,0,0,0,0-1.73A12,12,0,0,0,26.85,58c-.05-.23-.12-.51-.19-.8l-.22-.79a.4.4,0,0,0-.18-.24.39.39,0,0,0-.55.14l-.49.84-.21.34s0-.06,0-.09l.11-.44.07-.44a9.06,9.06,0,0,0,.06-1.8,8.59,8.59,0,0,0-.11-.89,6.13,6.13,0,0,0-.19-.9.52.52,0,0,0-.18-.27.5.5,0,0,0-.7.12l-1.2,1.69-.12.17c-.16.22-.31.43-.47.61l-.38.4c-.21-.45-.43-.88-.67-1.29a10.19,10.19,0,0,0-1-1.42l.53-.1a.19.19,0,0,0,.14-.12c.13-.26.26-.52.38-.78l.09-.19c.16-.32.31-.65.46-1a.33.33,0,0,0-.14-.43l-.28-.14.39-.81.27-.58a.57.57,0,0,0,0-.14.44.44,0,0,0-.09-.31.4.4,0,0,0-.28-.16h0L20.35,48,19.64,48,17.15,47l-2.57-.92a.47.47,0,0,0-.49.11l-.61.6-.16.15-.15-.23a4.05,4.05,0,0,1-.21-.35l0,0-.07-.11a2.75,2.75,0,0,1-.14-.3l-.09-.2a2.14,2.14,0,0,1-.1-.22l-.15-.43a6.89,6.89,0,0,1,0-3.61A13.5,13.5,0,0,1,13.85,38c.28-.47.57-.93.86-1.35l.39,1a.13.13,0,0,0,.12.08.12.12,0,0,0,.1-.08l.34-1,.06-.15c0-.14.1-.27.14-.41a5.42,5.42,0,0,0,.25-1.32.14.14,0,0,0-.07-.12h0l-.07,0A9.5,9.5,0,0,0,14.43,36a13.25,13.25,0,0,0-1.27,1.54,10.89,10.89,0,0,0-1.76,3.66,7.26,7.26,0,0,0-.22,2.09,5.87,5.87,0,0,0,.43,2.06,6.2,6.2,0,0,0,1.08,1.76l.23.25-.73.72,0,.06a.43.43,0,0,0-.07.33.41.41,0,0,0,.17.28l1.48,1.06c.12.37.23.67.34,1a5.45,5.45,0,0,0,.25.55,2.12,2.12,0,0,0,.17.27,1,1,0,0,0,.29.26,5,5,0,0,0,1.06.41h0l.11,0c0,.59.08,1.18.14,1.76,0,.29.05.58.08.87,0,.11,0,.21,0,.31s0,.17,0,.28-.07.4-.12.62a6.75,6.75,0,0,0-.12.72.89.89,0,0,1,0,.11l-.83-.21L14,56.51a.51.51,0,0,0-.36.07l-.91.6,0,0a1.73,1.73,0,0,0-.41.4,1.61,1.61,0,0,0-.27.6.12.12,0,0,0,0,.1.1.1,0,0,0,.08,0,1.59,1.59,0,0,0,.55,0v0c.06.23.11.46.16.69l0,0a1,1,0,0,0-.3.32,1.13,1.13,0,0,0-.15.52.12.12,0,0,0,.08.12,1,1,0,0,0,.53,0,.27.27,0,0,0,.12,0h0l.24,1v0a.49.49,0,0,0,.64.31L15.15,61c.06.4.13.8.2,1.2.1.56.21,1.17.36,1.8a6.72,6.72,0,0,0,.26.92c.1.28.23.56.35.82v0c.27.58.53,1.12.8,1.64h0a.28.28,0,0,0,.23.15.27.27,0,0,0,.12,0l1-.53,1-.55a.12.12,0,0,0,.05-.15.11.11,0,0,0-.14-.07l-1.1.38-.84.31-.07-.17c-.15-.42-.32-.85-.47-1.27s-.21-.58-.29-.83a8.39,8.39,0,0,1-.18-.84c-.05-.3-.1-.6-.14-.88l-.13-.89c-.05-.42-.11-.84-.16-1.25L16,60.27a.29.29,0,0,0,0-.09.48.48,0,0,0-.62-.31l-1.19.41c-.19-.79-.4-1.63-.61-2.48h0l.44-.32.9.18.94.18.44.67.25.39c.24.36.49.77.76,1.23s.51.88.69,1.25c.05.11.09.22.13.32l.06.2c0,.05,0,.1,0,.14l.21.7a.12.12,0,1,0,.23-.05l-.12-.83a2.51,2.51,0,0,0,0-.27c0-.11-.06-.24-.1-.38-.16-.48-.37-.93-.57-1.38s-.46-.92-.67-1.31-.3-.55-.43-.79c.05-.11.08-.21.12-.31A2.58,2.58,0,0,0,17,57a5.43,5.43,0,0,1,.08-.63,5.33,5.33,0,0,0,.07-.75,2.87,2.87,0,0,0,0-.41c0-.12,0-.25-.07-.36a16.14,16.14,0,0,0-.73-2.43l.67.15a.12.12,0,0,0,.13-.09.11.11,0,0,0-.07-.14l-1-.42c-.16-.08-.33-.15-.49-.24a2.13,2.13,0,0,1-.44-.26.25.25,0,0,1-.11-.12,1,1,0,0,1-.1-.21l-.18-.51c-.1-.32-.19-.68-.27-1.06a.34.34,0,0,0-.13-.2l-1.09-.9.42-.39.32.24.27.19a.12.12,0,0,0,.16-.18L14,47.88l-.13-.15.21-.19.43-.39,2.27.84c.83.3,1.7.61,2.57.9h0l.1,0,.74,0,.86.06-.46,1.18v0a.36.36,0,0,0,.2.45l.32.14-.25.7-.06.17c-.09.25-.17.5-.26.76-.41.13-.75.25-1.07.37a.12.12,0,0,0-.08.14.12.12,0,0,0,.13.09L20,53a9.54,9.54,0,0,0,.4,1.77c.16.53.46,1.27.68,1.79l-.19.23a3.14,3.14,0,0,0-.33.48,2.7,2.7,0,0,0-.24.55A5.15,5.15,0,0,0,20.23,60a.12.12,0,0,0,.23,0A6.91,6.91,0,0,1,20.92,58a2.31,2.31,0,0,1,.54-.73c.22-.22.47-.44.71-.66l.09-.08c.23-.2.47-.42.71-.66a6.93,6.93,0,0,0,.67-.8l0,0c.18-.23.36-.48.58-.78,0,.17,0,.35.07.52a10.18,10.18,0,0,1,.08,1.64,8.72,8.72,0,0,1-.22,1.62,8,8,0,0,1-.57,1.56.12.12,0,0,0,0,.15.11.11,0,0,0,.15,0c.22-.19.45-.41.72-.69s.4-.44.58-.66l.08-.09c.2-.23.38-.47.56-.7l.06-.08,0,0,.12.66c.09.55.15,1.06.19,1.54a7.13,7.13,0,0,1,0,1.49.78.78,0,0,1,0,.21.6.6,0,0,0,0,.12l-.09.27,0,0a2.54,2.54,0,0,1-.36.54c-.27.32-.57.62-.9.94l-.28.28a7.59,7.59,0,0,0-1,1.17,2,2,0,0,0-.12.21l0,.06a1,1,0,0,0-.07.15l0,.06-.06.17h0a2.25,2.25,0,0,0-.05.22,5.08,5.08,0,0,0,0,.87c0,.23,0,.46,0,.68s.05.62.05.93a.1.1,0,0,0,.1.11.11.11,0,0,0,.13-.09,9.31,9.31,0,0,0,.18-1.29l0-.33a6.77,6.77,0,0,1,.13-.74s0-.09,0-.13l.09-.18a.25.25,0,0,1,0-.07.21.21,0,0,0,0-.06,1.47,1.47,0,0,1,.1-.13,5.16,5.16,0,0,1,.5-.53A11.37,11.37,0,0,0,25.9,67a9.55,9.55,0,0,0,1.8,1.84l-.65.38,0,0a3.86,3.86,0,0,0-.38.29l-.19.2c-.05.08-.11.15-.15.22a2.66,2.66,0,0,0-.39,1,3.2,3.2,0,0,0-.08.48v0a2,2,0,0,0,0,.27,1,1,0,0,0,.12.43,1.2,1.2,0,0,0,.25.31,2.68,2.68,0,0,0,.23.17l.1.06s.11,0,.16.08a1.11,1.11,0,0,0,.3.08,3,3,0,0,0,1,0,3.07,3.07,0,0,0,1-.28,1.24,1.24,0,0,0,.27-.17,1.45,1.45,0,0,0,.21-.22,4.35,4.35,0,0,0,.28-.41l.05-.08.16-.27a1.76,1.76,0,0,1,.14-.16l0,0,.71-.37c.22-.13.49-.28.76-.47a2.2,2.2,0,0,0,.39-.32,1.23,1.23,0,0,0,.34-.58,2.32,2.32,0,0,0,0-.82,4.83,4.83,0,0,1,.72-.13,4.52,4.52,0,0,1,.89,0,5,5,0,0,1,.87.2,6.09,6.09,0,0,1,.65.27c0,.06,0,.12,0,.19a3.53,3.53,0,0,0,0,.89,1.38,1.38,0,0,0,.15.52,1.05,1.05,0,0,0,.41.45h0l.3.16.12.06a4.61,4.61,0,0,1-.18,1.23,4.37,4.37,0,0,1-.69,1.36,7.11,7.11,0,0,1-.49.6,5.65,5.65,0,0,1-.55.54,6.52,6.52,0,0,1-1.22.88,5.59,5.59,0,0,1-2.85.66,9.47,9.47,0,0,1-1.49-.2A11.71,11.71,0,0,1,27.41,76a12.53,12.53,0,0,1-5-3.59,35.83,35.83,0,0,1-3.75-5.19.12.12,0,0,0-.15,0,.13.13,0,0,0-.06.16A23.53,23.53,0,0,0,20,70.23a22.26,22.26,0,0,0,1.85,2.71,14.51,14.51,0,0,0,2.35,2.35,10.85,10.85,0,0,0,2.91,1.64,11.91,11.91,0,0,0,1.61.46,8.78,8.78,0,0,0,1.66.19h0a6.21,6.21,0,0,0,3.26-.9,5.82,5.82,0,0,0,.5-.35,3.41,3.41,0,0,0,1.61.72A3.89,3.89,0,0,0,38,76.71a5.26,5.26,0,0,0,1.74-1.35,6.37,6.37,0,0,0,1-1.53h.12a1.53,1.53,0,0,0,.29-.07,1.24,1.24,0,0,0,.5-.37,1.57,1.57,0,0,0,.16-.29,2.38,2.38,0,0,0,.07-.29,2.92,2.92,0,0,0,0-.89v0a12.41,12.41,0,0,0,.68-1.21A14.57,14.57,0,0,0,43.15,68.89ZM32.49,20.25l-.19-.17-.22-.72-.17-.54,0-.06a.43.43,0,0,0-.58-.18l-.6.33-.26.15a3,3,0,0,0-.39-.24,2.36,2.36,0,0,0-1.42-.21,1.51,1.51,0,0,0-.35.08,2.23,2.23,0,0,0-.31.12h0l-.56.26c-.34.16-.65.32-.95.48a2.68,2.68,0,0,1,.21-1,2.91,2.91,0,0,1,.69-1,3.5,3.5,0,0,1,1-.72,4,4,0,0,1,.55-.23l.38-.1.21-.06a4.4,4.4,0,0,1,1.18-.11,2.16,2.16,0,0,1,1,.33,2.3,2.3,0,0,1,.71.81,3.37,3.37,0,0,1,.24.54c.07.18.12.36.18.55v0c.24.83.44,1.67.64,2.53C33.15,20.83,32.84,20.55,32.49,20.25ZM21.79,31.86c-.31.2-.61.41-.91.62a.37.37,0,0,0-.13.12l-.45-.2-.16-.07-.31-.13-.32-.13-.35-.85c-.12-.27-.24-.54-.37-.81.05-.26.09-.52.13-.79.59,0,1.14-.09,1.68-.15h0c.09.14.18.29.28.43l.3.44c.06.07.11.15.17.23s.2.29.31.43.11.15.17.23l.3.38ZM50.6,56.2a.46.46,0,0,1-.35.16.43.43,0,0,1-.35-.14.48.48,0,0,1-.16-.36.51.51,0,0,1,.5-.52.48.48,0,0,1,.34.14.48.48,0,0,1,.16.36A.54.54,0,0,1,50.6,56.2Zm.86-10.94h0c-.08,1.41-.2,2.79-.36,4.11s-.39,2.74-.65,4.07c-.07.34-.15.7-.24,1.14h-.15c-.24-1.25-.53-2.58-.87-4.07-.44-1.9-.9-3.76-1.37-5.55l-.16-.61h0l.15-.13a1.32,1.32,0,0,0,.34-.91l.12,0c.4,0,.87-.12,1.33-.2l1.3-.23a1.2,1.2,0,0,0,.64.49C51.52,44.08,51.5,44.69,51.46,45.26ZM47,42.08c-.25-.92-.5-1.78-.74-2.61h0c-.47-1.56-.9-2.95-1.34-4.24a1.77,1.77,0,0,0,.32-.21c.35.46.65.85.95,1.2s.48.59.72.87l.17.21c.25.3.52.61.78.9l.13.16c.62.71,1.26,1.42,1.86,2.08.33.36.67.72,1,1a1.33,1.33,0,0,0-.19.58l-1.23.35-1.29.39-.12,0A1.24,1.24,0,0,0,47,42.08Zm.36,1.25a.47.47,0,0,1-.14.36.46.46,0,0,1-.35.16.5.5,0,0,1-.36-.14.52.52,0,0,1,0-.72.47.47,0,0,1,.36-.16A.51.51,0,0,1,47.39,43.33Zm4.53-1.7a.51.51,0,0,1,.5.5.5.5,0,0,1-.49.52h0a.45.45,0,0,1-.35-.13.48.48,0,0,1-.16-.36.5.5,0,0,1,.13-.37A.51.51,0,0,1,51.92,41.63Zm-1.24-9.47a.5.5,0,0,1,.87.34.5.5,0,0,1-.49.52.45.45,0,0,1-.36-.14.51.51,0,0,1-.15-.35A.5.5,0,0,1,50.68,32.16Zm.22,1.62c.16,1,.29,2,.41,3.23s.19,2.5.22,3.75c-.29-.32-.6-.68-.92-1-.6-.66-1.25-1.35-1.91-2l-.14-.15-.84-.85-.19-.19-.8-.79-1.18-1.1a1.06,1.06,0,0,0,.12-.43c.92-.23,1.73-.44,2.47-.65.59-.17,1.19-.34,1.76-.53a1.37,1.37,0,0,0,.29.42A1.22,1.22,0,0,0,50.9,33.78ZM47.4,54.87l-.26-.94c-.46-1.69-.94-3.41-1.4-5.07-.23-.8-.45-1.61-.68-2.41l-4.25-15,1.09-.15.44-.07.79-.13c.91-.17,1.71-.34,2.44-.51.89-.21,1.68-.42,2.41-.64.35-.11.77-.24,1.19-.39l.83-.31c.19.8.34,1.49.48,2.14a1.2,1.2,0,0,0-.34.25,1.34,1.34,0,0,0-.34.89L48,32.85c-.75.15-1.57.33-2.49.54a1.57,1.57,0,0,0-.2-.25,1.24,1.24,0,0,0-.89-.35,1.28,1.28,0,0,0,0,2.55h.12c.26,1.34.56,2.76.93,4.35.2.85.4,1.71.63,2.65l-.13.12a1.28,1.28,0,0,0-.34.92,1.3,1.3,0,0,0,.39.89,1.19,1.19,0,0,0,.65.33v0l.16.61c.47,1.79,1,3.64,1.53,5.5.44,1.48.85,2.79,1.25,4a1.29,1.29,0,0,0,0,2.23c0,.16-.08.32-.13.48-.25.91-.49,1.71-.74,2.45C48.32,58.22,47.85,56.52,47.4,54.87ZM44.93,34.06a.49.49,0,0,1-.13.36.5.5,0,0,1-.35.16h0a.5.5,0,0,1-.36-.14.52.52,0,0,1-.16-.36.54.54,0,0,1,.14-.36.48.48,0,0,1,.36-.16.52.52,0,0,1,.35.14A.48.48,0,0,1,44.93,34.06ZM32.07,62.32c0,.33-.07.61-.11.87s-.1.5-.18.84l-.06.25a15,15,0,0,0-.34,1.54,12.49,12.49,0,0,0-.14,1.85v0c0,.18.05.34.08.5l.06.36a1.68,1.68,0,0,1,0,.65.56.56,0,0,1-.08.16,2.09,2.09,0,0,1-.28.2l-.69.41-.55.28-.23.13a1.44,1.44,0,0,0-.41.41l0,0-.19.3-.05.09a2.11,2.11,0,0,1-.2.29l-.08.09-.09,0a2,2,0,0,1-.65.17,2.17,2.17,0,0,1-.68,0l-.11,0h0l-.08,0a.53.53,0,0,1-.13-.1.83.83,0,0,1,0-.12,3.18,3.18,0,0,1,.06-.37,1.75,1.75,0,0,1,.24-.62,1.41,1.41,0,0,1,.46-.45l.69-.41c.48-.26,1-.51,1.49-.74a.49.49,0,0,0,.27-.51c-.1-.68-.18-1.24-.24-1.76s-.13-1.2-.19-1.76-.1-1.23-.13-1.77c0-.26,0-.57,0-.88s0-.63,0-.88a.5.5,0,0,0,0-.12A11.63,11.63,0,0,1,29,59.58a12.3,12.3,0,0,1-.24-1.72,12.58,12.58,0,0,1,0-1.74c0-.43.05-.79.09-1.12a4.11,4.11,0,0,0,.35.27,5.92,5.92,0,0,0,2.54,1.08,9.89,9.89,0,0,0,1.22.13,6.06,6.06,0,0,1-.06.64c0,.36-.08.75-.15,1.14s-.13.75-.22,1.12a6.11,6.11,0,0,1-.35,1,.31.31,0,0,0,0,.13v0A13,13,0,0,1,32.07,62.32Zm3.67.26a12.1,12.1,0,0,0,0,1.81h0l.12,1.75c0,.53,0,1.08,0,1.63l-.12.29c0,.12-.09.24-.13.37h0a1.81,1.81,0,0,0-.41-.42A2.37,2.37,0,0,0,34,67.56a1.56,1.56,0,0,0-.31,0,2.15,2.15,0,0,0-.91.19,1.78,1.78,0,0,0-.59.41l0-.12c0-.14-.05-.27-.07-.39a14.26,14.26,0,0,1,.08-1.7,13.28,13.28,0,0,1,.27-1.46l.05-.26a10.31,10.31,0,0,0,.22-1.84,12.09,12.09,0,0,0,0-1.78A7.14,7.14,0,0,0,33,59.5c.08-.42.13-.84.16-1.18a18.25,18.25,0,0,0,.06-1.84,9.64,9.64,0,0,0,1.19-.08c.41-.06.84-.13,1.3-.24,0,.69,0,1.4,0,2.11s.14,1.67.28,2.59A12,12,0,0,0,35.74,62.58Zm3.37,12.17h0a7.43,7.43,0,0,1-1.57,1,4.27,4.27,0,0,1-1.74.42A4.49,4.49,0,0,1,34.51,76,7.42,7.42,0,0,0,36,74.27a4.47,4.47,0,0,0,.62-1.6,4.4,4.4,0,0,0,0-1.21l.06,0,.5.24a1.15,1.15,0,0,1,.2.13.93.93,0,0,1,.1.16,1.74,1.74,0,0,0,.1.19,3.17,3.17,0,0,0,.27.5,1.07,1.07,0,0,0,.21.23l.08.06.13.08a2.91,2.91,0,0,0,.35.18c.23.11.46.21.7.3a5.66,5.66,0,0,0,.75.2l.08,0C39.82,74.12,39.47,74.45,39.11,74.75Zm1.7-2.09,0,.06v0s0,0-.07.05h-.13a1.35,1.35,0,0,1-.29,0,4.23,4.23,0,0,1-.62-.17,5.36,5.36,0,0,1-.6-.24l-.28-.14-.08,0,0,0a2.64,2.64,0,0,1-.19-.35l-.12-.23,0-.05a1.51,1.51,0,0,0-.28-.38,1.89,1.89,0,0,0-.37-.24l0,0c-.23-.12-.44-.21-.68-.31l-.32-.14a1.47,1.47,0,0,1-.25-.12l0,0a.12.12,0,0,1-.07-.07.64.64,0,0,1,0-.19,2.14,2.14,0,0,1,0-.6,4.62,4.62,0,0,1,.16-.67c0-.12.07-.23.11-.34l.14-.36a.33.33,0,0,0,0-.15c0-.53,0-1.1-.09-1.79l-.17-1.75a11.2,11.2,0,0,1,0-1.71,11.88,11.88,0,0,1,.2-1.69h0a.24.24,0,0,0,0-.12c-.09-.41-.18-.84-.25-1.29s-.14-.91-.2-1.29-.1-.86-.14-1.31c0-.26,0-.53-.07-.83l1-.28a12.9,12.9,0,0,0,2.45-1.05l.53-.34c0,.42,0,.88,0,1.41s0,1.37-.11,2a16.94,16.94,0,0,1-.31,2A12.53,12.53,0,0,1,39,61.77a.28.28,0,0,0,0,.13,30.22,30.22,0,0,1-.37,3.46c-.11.69-.2,1.22-.29,1.72s-.23,1.2-.35,1.71a.49.49,0,0,0,.19.5c.39.3.76.59,1.1.87l.25.22a1.47,1.47,0,0,1,.22.21c.15.16.3.34.45.52s.28.37.39.54a1.48,1.48,0,0,1,.15.25.52.52,0,0,1,.07.21A1.67,1.67,0,0,1,40.81,72.66Zm1.07-2.22c-.09.31-.19.61-.3.93a2.45,2.45,0,0,0-.18-.29,5.74,5.74,0,0,0-.46-.61,6.77,6.77,0,0,0-.49-.56,2,2,0,0,0-.29-.29L40,69.48a5.09,5.09,0,0,0,.4-.41,5,5,0,0,0,.55-.75,9.1,9.1,0,0,0,.78-1.69c.2-.54.36-1.08.54-1.73l.11-.44a2.58,2.58,0,0,0,.08-.26s0-.1,0-.14,0-.11,0-.16l.08-.24.16-.4a6.93,6.93,0,0,1,1.93-2.64A10.52,10.52,0,0,1,47.54,59c.06.24.13.47.19.71l0,.15a6.52,6.52,0,0,0-1.52.46h0a5.05,5.05,0,0,0-1.59,1.13,5.76,5.76,0,0,0-1.13,1.64,8.12,8.12,0,0,0-.6,1.88c-.07.39-.12.75-.17,1.11s-.06.5-.1.75c-.09.58-.19,1.17-.32,1.8A18,18,0,0,1,41.88,70.44Z"/><polygon class="cls-1" points="57.66 51.49 58.43 51.23 57.66 51.49 57.66 51.49"/><path class="cls-1" d="M60.24,51.38l-3.66-2.1h-.09a.09.09,0,0,0-.05.08l0,.4a.09.09,0,0,0,.05.1l1,.59-.13,1.36-1.15.38a.1.1,0,0,0-.06.08l-.06.66a.09.09,0,0,0,0,.09l.06,0h0l4.14-1.4a.13.13,0,0,0,.07-.09.12.12,0,0,0,0-.09Zm-2.33.24.08-.88.24.13.71.4Z"/><path class="cls-1" d="M4,50l4,1.43a.1.1,0,0,0,.09,0,.09.09,0,0,0,0-.09l0-.4A.11.11,0,0,0,8,50.87l-1.14-.4-.11-1.36,1.06-.58a.07.07,0,0,0,0-.09l0-.66a.1.1,0,0,0,0-.08H7.66L3.82,49.8a.09.09,0,0,0,0,.09.1.1,0,0,0,.07.08Zm2.25-.65.07.89-.26-.09-.76-.27Z"/><path class="cls-1" d="M4.13,38.4l3.62,2.16h.09a.09.09,0,0,0,0-.08l0-.4a.1.1,0,0,0,0-.1l-1-.61L7,38l1.15-.37a.1.1,0,0,0,.07-.08l.07-.66a.08.08,0,0,0,0-.08l-.06,0h0L4,38.14a.08.08,0,0,0-.07.08.08.08,0,0,0,.05.09Zm2.33-.21-.1.89-.24-.14-.7-.42Z"/></g></g></svg>